<mxfile host="app.diagrams.net" modified="2022-08-29T18:57:38.119Z" agent="5.0 (X11; Linux x86_64) AppleWebKit/537.36 (KHTML, like Gecko) Chrome/104.0.0.0 Safari/537.36" etag="OXoBrxKzKuKbdbsGKgrF" version="15.7.3" type="github">
  <diagram id="kgpKYQtTHZ0yAKxKKP6v" name="Page-1">
    <mxGraphModel dx="1588" dy="2009" grid="1" gridSize="10" guides="1" tooltips="1" connect="1" arrows="1" fold="1" page="1" pageScale="1" pageWidth="850" pageHeight="1100" math="0" shadow="0">
      <root>
        <mxCell id="0" />
        <mxCell id="1" parent="0" />
        <mxCell id="3nuBFxr9cyL0pnOWT2aG-1" value="Interface" style="shape=umlLifeline;perimeter=lifelinePerimeter;container=1;collapsible=0;recursiveResize=0;rounded=0;shadow=0;strokeWidth=1;size=40;" parent="1" vertex="1">
          <mxGeometry x="120" y="80" width="120" height="510" as="geometry" />
        </mxCell>
        <mxCell id="3nuBFxr9cyL0pnOWT2aG-2" value="" style="points=[];perimeter=orthogonalPerimeter;rounded=0;shadow=0;strokeWidth=1;" parent="3nuBFxr9cyL0pnOWT2aG-1" vertex="1">
          <mxGeometry x="45" y="70" width="10" height="370" as="geometry" />
        </mxCell>
        <mxCell id="3nuBFxr9cyL0pnOWT2aG-3" value="dispatch" style="verticalAlign=bottom;startArrow=oval;endArrow=block;startSize=8;shadow=0;strokeWidth=1;" parent="3nuBFxr9cyL0pnOWT2aG-1" target="3nuBFxr9cyL0pnOWT2aG-2" edge="1">
          <mxGeometry relative="1" as="geometry">
            <mxPoint x="-15" y="70" as="sourcePoint" />
          </mxGeometry>
        </mxCell>
        <mxCell id="3nuBFxr9cyL0pnOWT2aG-4" value="" style="points=[];perimeter=orthogonalPerimeter;rounded=0;shadow=0;strokeWidth=1;" parent="3nuBFxr9cyL0pnOWT2aG-1" vertex="1">
          <mxGeometry x="50" y="120" width="10" height="80" as="geometry" />
        </mxCell>
        <mxCell id="84HWRMCsTzLrG9cOh1mS-37" value="" style="shape=waypoint;sketch=0;fillStyle=solid;size=6;pointerEvents=1;points=[];fillColor=none;resizable=0;rotatable=0;perimeter=centerPerimeter;snapToPoint=1;" vertex="1" parent="3nuBFxr9cyL0pnOWT2aG-1">
          <mxGeometry x="35" y="60" width="40" height="40" as="geometry" />
        </mxCell>
        <mxCell id="3nuBFxr9cyL0pnOWT2aG-5" value="Encryption" style="shape=umlLifeline;perimeter=lifelinePerimeter;container=1;collapsible=0;recursiveResize=0;rounded=0;shadow=0;strokeWidth=1;size=60;" parent="1" vertex="1">
          <mxGeometry x="330" y="80" width="110" height="40" as="geometry" />
        </mxCell>
        <mxCell id="3nuBFxr9cyL0pnOWT2aG-8" value="Original Image and Key" style="verticalAlign=bottom;endArrow=block;entryX=0;entryY=0;shadow=0;strokeWidth=1;" parent="1" source="3nuBFxr9cyL0pnOWT2aG-2" target="3nuBFxr9cyL0pnOWT2aG-6" edge="1">
          <mxGeometry relative="1" as="geometry">
            <mxPoint x="275" y="160" as="sourcePoint" />
          </mxGeometry>
        </mxCell>
        <mxCell id="84HWRMCsTzLrG9cOh1mS-11" value="Encryption O/P" style="rounded=0;whiteSpace=wrap;html=1;" vertex="1" parent="1">
          <mxGeometry x="552.5" y="80" width="105" height="40" as="geometry" />
        </mxCell>
        <mxCell id="84HWRMCsTzLrG9cOh1mS-14" value="" style="verticalAlign=bottom;endArrow=block;shadow=0;strokeWidth=1;startArrow=none;exitX=1.082;exitY=0.388;exitDx=0;exitDy=0;exitPerimeter=0;entryX=-0.212;entryY=0.373;entryDx=0;entryDy=0;entryPerimeter=0;" edge="1" parent="1" source="3nuBFxr9cyL0pnOWT2aG-6" target="84HWRMCsTzLrG9cOh1mS-12">
          <mxGeometry x="1" y="-464" relative="1" as="geometry">
            <mxPoint x="575" y="280" as="sourcePoint" />
            <mxPoint x="425" y="280" as="targetPoint" />
            <Array as="points" />
            <mxPoint x="359" y="-174" as="offset" />
          </mxGeometry>
        </mxCell>
        <mxCell id="84HWRMCsTzLrG9cOh1mS-22" value="" style="triangle;whiteSpace=wrap;html=1;direction=south;" vertex="1" parent="1">
          <mxGeometry x="380" y="150" width="10" height="10" as="geometry" />
        </mxCell>
        <mxCell id="84HWRMCsTzLrG9cOh1mS-12" value="" style="points=[];perimeter=orthogonalPerimeter;rounded=0;shadow=0;strokeWidth=1;" vertex="1" parent="1">
          <mxGeometry x="600" y="160" width="10" height="80" as="geometry" />
        </mxCell>
        <mxCell id="84HWRMCsTzLrG9cOh1mS-28" value="" style="endArrow=none;dashed=1;html=1;rounded=0;entryX=0.541;entryY=1.01;entryDx=0;entryDy=0;entryPerimeter=0;exitX=0;exitY=0.5;exitDx=0;exitDy=0;" edge="1" parent="1">
          <mxGeometry width="50" height="50" relative="1" as="geometry">
            <mxPoint x="604.49" y="149.6" as="sourcePoint" />
            <mxPoint x="604.4100000000001" y="120.00000000000009" as="targetPoint" />
          </mxGeometry>
        </mxCell>
        <mxCell id="84HWRMCsTzLrG9cOh1mS-30" value="" style="triangle;whiteSpace=wrap;html=1;direction=south;" vertex="1" parent="1">
          <mxGeometry x="600" y="150" width="10" height="10" as="geometry" />
        </mxCell>
        <mxCell id="84HWRMCsTzLrG9cOh1mS-32" value="&lt;span style=&quot;color: rgba(0 , 0 , 0 , 0) ; font-family: monospace ; font-size: 0px&quot;&gt;t&lt;/span&gt;" style="text;html=1;align=center;verticalAlign=middle;resizable=0;points=[];autosize=1;strokeColor=none;fillColor=none;" vertex="1" parent="1">
          <mxGeometry x="450" y="160" width="20" height="20" as="geometry" />
        </mxCell>
        <mxCell id="84HWRMCsTzLrG9cOh1mS-34" value="Cipher text and split images" style="text;html=1;strokeColor=none;fillColor=none;align=center;verticalAlign=middle;whiteSpace=wrap;rounded=0;" vertex="1" parent="1">
          <mxGeometry x="400" y="170" width="170" height="30" as="geometry" />
        </mxCell>
        <mxCell id="84HWRMCsTzLrG9cOh1mS-15" value="" style="endArrow=none;dashed=1;html=1;rounded=0;" edge="1" parent="1">
          <mxGeometry width="50" height="50" relative="1" as="geometry">
            <mxPoint x="384.40999999999997" y="150" as="sourcePoint" />
            <mxPoint x="384.81999999999994" y="120" as="targetPoint" />
            <Array as="points" />
          </mxGeometry>
        </mxCell>
        <mxCell id="84HWRMCsTzLrG9cOh1mS-38" value="" style="shape=waypoint;sketch=0;fillStyle=solid;size=6;pointerEvents=1;points=[];fillColor=none;resizable=0;rotatable=0;perimeter=centerPerimeter;snapToPoint=1;" vertex="1" parent="1">
          <mxGeometry x="370" y="170" width="40" height="40" as="geometry" />
        </mxCell>
        <mxCell id="84HWRMCsTzLrG9cOh1mS-39" value="" style="endArrow=classic;html=1;rounded=0;" edge="1" parent="1" source="3nuBFxr9cyL0pnOWT2aG-1">
          <mxGeometry width="50" height="50" relative="1" as="geometry">
            <mxPoint x="530" y="480" as="sourcePoint" />
            <mxPoint x="760" y="430" as="targetPoint" />
          </mxGeometry>
        </mxCell>
        <mxCell id="84HWRMCsTzLrG9cOh1mS-40" value="" style="rounded=0;whiteSpace=wrap;html=1;direction=south;" vertex="1" parent="1">
          <mxGeometry x="760" y="400" width="10" height="120" as="geometry" />
        </mxCell>
        <mxCell id="84HWRMCsTzLrG9cOh1mS-41" value="" style="triangle;whiteSpace=wrap;html=1;direction=south;" vertex="1" parent="1">
          <mxGeometry x="760" y="390" width="10" height="10" as="geometry" />
        </mxCell>
        <mxCell id="84HWRMCsTzLrG9cOh1mS-43" value="" style="endArrow=none;dashed=1;html=1;rounded=0;exitX=0;exitY=0.5;exitDx=0;exitDy=0;" edge="1" parent="1" source="84HWRMCsTzLrG9cOh1mS-41">
          <mxGeometry width="50" height="50" relative="1" as="geometry">
            <mxPoint x="760" y="390" as="sourcePoint" />
            <mxPoint x="765" y="120" as="targetPoint" />
          </mxGeometry>
        </mxCell>
        <mxCell id="3nuBFxr9cyL0pnOWT2aG-6" value="" style="points=[];perimeter=orthogonalPerimeter;rounded=0;shadow=0;strokeWidth=1;" parent="1" vertex="1">
          <mxGeometry x="380" y="160" width="10" height="80" as="geometry" />
        </mxCell>
        <mxCell id="84HWRMCsTzLrG9cOh1mS-44" value="Decryption" style="rounded=0;whiteSpace=wrap;html=1;" vertex="1" parent="1">
          <mxGeometry x="720" y="80" width="90" height="40" as="geometry" />
        </mxCell>
        <mxCell id="84HWRMCsTzLrG9cOh1mS-45" value="Encrypted Key Image" style="text;html=1;strokeColor=none;fillColor=none;align=center;verticalAlign=middle;whiteSpace=wrap;rounded=0;" vertex="1" parent="1">
          <mxGeometry x="352.5" y="410" width="200" height="30" as="geometry" />
        </mxCell>
        <mxCell id="84HWRMCsTzLrG9cOh1mS-46" value="return" style="html=1;verticalAlign=bottom;endArrow=open;dashed=1;endSize=8;rounded=0;" edge="1" parent="1">
          <mxGeometry x="1" y="-382" relative="1" as="geometry">
            <mxPoint x="600" y="220" as="sourcePoint" />
            <mxPoint x="390" y="220" as="targetPoint" />
            <mxPoint x="-280" y="122" as="offset" />
          </mxGeometry>
        </mxCell>
        <mxCell id="84HWRMCsTzLrG9cOh1mS-47" value="Key shares" style="text;html=1;strokeColor=none;fillColor=none;align=center;verticalAlign=middle;whiteSpace=wrap;rounded=0;" vertex="1" parent="1">
          <mxGeometry x="422.5" y="200" width="130" height="30" as="geometry" />
        </mxCell>
        <mxCell id="84HWRMCsTzLrG9cOh1mS-48" value="Original Image" style="html=1;verticalAlign=bottom;endArrow=open;dashed=1;endSize=8;rounded=0;exitX=0.5;exitY=1;exitDx=0;exitDy=0;" edge="1" parent="1" source="84HWRMCsTzLrG9cOh1mS-40" target="3nuBFxr9cyL0pnOWT2aG-1">
          <mxGeometry x="-0.0012" relative="1" as="geometry">
            <mxPoint x="770" y="310" as="sourcePoint" />
            <mxPoint x="690" y="310" as="targetPoint" />
            <mxPoint x="-1" as="offset" />
          </mxGeometry>
        </mxCell>
      </root>
    </mxGraphModel>
  </diagram>
</mxfile>
